<svg width="18" height="10" viewBox="0 0 18 10" fill="none" xmlns="http://www.w3.org/2000/svg">
<path d="M0.234375 0.914062C0.703125 0.953125 1.11328 0.976563 1.46484 0.984375C1.82422 0.992187 2.12891 0.996094 2.37891 0.996094C2.66797 0.996094 2.91797 0.988281 3.12891 0.972656C3.34766 0.949219 3.63281 0.917969 3.98438 0.878906C4.28125 0.839844 4.66406 0.789063 5.13281 0.726562C5.60156 0.65625 6.17188 0.566406 6.84375 0.457031C6.75781 0.589844 6.68359 0.730469 6.62109 0.878906C6.56641 1.01953 6.51953 1.14844 6.48047 1.26562C6.44141 1.40625 6.40625 1.54297 6.375 1.67578C6.35156 1.82422 6.32422 2.00781 6.29297 2.22656C6.26172 2.41406 6.22266 2.65234 6.17578 2.94141C6.13672 3.22266 6.08594 3.55859 6.02344 3.94922C5.78906 3.33984 5.55078 2.87109 5.30859 2.54297C5.07422 2.21484 4.85547 1.97266 4.65234 1.81641C4.41797 1.63672 4.19531 1.53516 3.98438 1.51172C3.67969 1.51172 3.42969 1.57031 3.23438 1.6875C3.03906 1.80469 2.87891 1.95703 2.75391 2.14453C2.63672 2.32422 2.54688 2.52344 2.48438 2.74219C2.42188 2.95312 2.37891 3.16016 2.35547 3.36328C2.33203 3.55859 2.31641 3.73438 2.30859 3.89062C2.30078 4.03906 2.29297 4.14062 2.28516 4.19531C2.55859 4.17969 2.78906 4.16016 2.97656 4.13672C3.16406 4.11328 3.3125 4.08984 3.42188 4.06641C3.55469 4.03516 3.66016 4.00391 3.73828 3.97266C3.85547 3.91016 3.97266 3.83594 4.08984 3.75C4.19141 3.67188 4.29688 3.57812 4.40625 3.46875C4.52344 3.35938 4.625 3.22656 4.71094 3.07031C4.66406 3.35156 4.62109 3.58594 4.58203 3.77344C4.55078 3.96094 4.52344 4.10938 4.5 4.21875C4.46875 4.35156 4.44922 4.45312 4.44141 4.52344C4.42578 4.59375 4.40625 4.69141 4.38281 4.81641C4.35938 4.92578 4.33203 5.06641 4.30078 5.23828C4.26953 5.41016 4.23438 5.625 4.19531 5.88281C4.10156 5.71875 4.00391 5.58594 3.90234 5.48438C3.80078 5.375 3.70703 5.28906 3.62109 5.22656C3.51953 5.15625 3.42188 5.10156 3.32812 5.0625C3.22656 5.03125 3.11719 5 3 4.96875C2.89844 4.94531 2.77734 4.92188 2.63672 4.89844C2.50391 4.86719 2.35938 4.83984 2.20312 4.81641C2.21875 5.23828 2.24219 5.60156 2.27344 5.90625C2.30469 6.20312 2.33203 6.45312 2.35547 6.65625C2.38672 6.89062 2.41797 7.08594 2.44922 7.24219C2.48828 7.39844 2.55078 7.56641 2.63672 7.74609C2.70703 7.90234 2.80469 8.08203 2.92969 8.28516C3.0625 8.48047 3.23047 8.69141 3.43359 8.91797C3.27734 8.87891 3.11328 8.85156 2.94141 8.83594C2.76953 8.82031 2.61719 8.80859 2.48438 8.80078C2.32031 8.79297 2.16406 8.79297 2.01562 8.80078C1.85938 8.80859 1.6875 8.82422 1.5 8.84766C1.34375 8.86328 1.16406 8.88672 0.960938 8.91797C0.757812 8.94922 0.542969 8.98438 0.316406 9.02344C0.449219 8.89062 0.558594 8.75781 0.644531 8.625C0.730469 8.49219 0.792969 8.375 0.832031 8.27344C0.878906 8.15625 0.910156 8.04297 0.925781 7.93359C0.933594 7.83984 0.9375 7.63672 0.9375 7.32422C0.9375 7.00391 0.933594 6.63281 0.925781 6.21094C0.917969 5.78125 0.90625 5.32812 0.890625 4.85156C0.875 4.375 0.859375 3.92969 0.84375 3.51562C0.828125 3.09375 0.808594 2.73438 0.785156 2.4375C0.769531 2.14062 0.75 1.96094 0.726562 1.89844C0.695312 1.82031 0.660156 1.73047 0.621094 1.62891C0.558594 1.46484 0.429688 1.22656 0.234375 0.914062ZM6.75 7.71094C7.03125 7.67188 7.25 7.71875 7.40625 7.85156C7.57031 7.98438 7.64844 8.16797 7.64062 8.40234C7.63281 8.51953 7.60938 8.61328 7.57031 8.68359C7.53125 8.75391 7.47656 8.80859 7.40625 8.84766C7.34375 8.87891 7.26562 8.90625 7.17188 8.92969C7.08594 8.94531 6.98438 8.96094 6.86719 8.97656C6.75 9 6.63672 8.99609 6.52734 8.96484C6.41797 8.92578 6.32031 8.87109 6.23438 8.80078C6.14844 8.73047 6.07812 8.65234 6.02344 8.56641C5.97656 8.48047 5.95312 8.39453 5.95312 8.30859C5.95312 8.21484 5.97656 8.13672 6.02344 8.07422C6.07812 8.00391 6.14453 7.94531 6.22266 7.89844C6.30859 7.84375 6.39453 7.80469 6.48047 7.78125C6.57422 7.75 6.66406 7.72656 6.75 7.71094ZM7.64062 0.996094C8.1875 1.01172 8.64062 1.02344 9 1.03125C9.36719 1.03125 9.66406 1.03125 9.89062 1.03125H10.5117H14.0039C14.0195 1.1875 14.0312 1.33984 14.0391 1.48828C14.0547 1.62891 14.0625 1.75391 14.0625 1.86328C14.0625 1.99609 14.0586 2.11719 14.0508 2.22656C14.043 2.33594 14.0312 2.45312 14.0156 2.57812C14 2.6875 13.9844 2.80469 13.9688 2.92969C13.9531 3.05469 13.9258 3.18359 13.8867 3.31641C13.7773 2.89453 13.6289 2.57422 13.4414 2.35547C13.2617 2.13672 13.0781 1.97656 12.8906 1.875C12.6719 1.75781 12.4414 1.69531 12.1992 1.6875C11.8789 1.70312 11.6289 1.73047 11.4492 1.76953C11.2695 1.80859 11.1289 1.86328 11.0273 1.93359C10.9258 2.00391 10.8477 2.08594 10.793 2.17969C10.7461 2.26562 10.6953 2.36328 10.6406 2.47266C10.5938 2.56641 10.5508 2.71094 10.5117 2.90625C10.4727 3.07031 10.4336 3.29297 10.3945 3.57422C10.3633 3.85547 10.3281 4.21875 10.2891 4.66406C10.5 4.60156 10.668 4.54297 10.793 4.48828C10.9258 4.43359 11.0312 4.38672 11.1094 4.34766C11.1953 4.30078 11.2578 4.25781 11.2969 4.21875C11.3281 4.17188 11.375 4.08594 11.4375 3.96094C11.4844 3.85156 11.5469 3.70312 11.625 3.51562C11.7109 3.32812 11.8125 3.07031 11.9297 2.74219C11.9453 3.10156 11.9531 3.40234 11.9531 3.64453C11.9531 3.87891 11.957 4.07031 11.9648 4.21875C11.9648 4.39062 11.9688 4.52734 11.9766 4.62891V5.07422C11.9766 5.23828 11.9766 5.46094 11.9766 5.74219C11.9844 6.01562 11.9961 6.36328 12.0117 6.78516C11.918 6.49609 11.832 6.26953 11.7539 6.10547C11.6836 5.93359 11.6211 5.80469 11.5664 5.71875C11.5039 5.61719 11.4492 5.54688 11.4023 5.50781C11.3477 5.49219 11.2734 5.47656 11.1797 5.46094C11.0938 5.45312 10.9844 5.44922 10.8516 5.44922C10.7266 5.44922 10.5664 5.46875 10.3711 5.50781C10.3477 5.9375 10.3438 6.28516 10.3594 6.55078C10.3828 6.80859 10.4141 7.00781 10.4531 7.14844C10.4922 7.3125 10.5391 7.42969 10.5938 7.5C10.6641 7.57031 10.8047 7.62891 11.0156 7.67578C11.2266 7.71484 11.4648 7.73047 11.7305 7.72266C12.0039 7.70703 12.2812 7.66016 12.5625 7.58203C12.8438 7.50391 13.0938 7.375 13.3125 7.19531C13.4766 7.04688 13.6523 6.85938 13.8398 6.63281C13.9961 6.4375 14.168 6.19141 14.3555 5.89453C14.5508 5.59766 14.7422 5.23828 14.9297 4.81641C14.8984 5.16797 14.875 5.46094 14.8594 5.69531C14.8516 5.92188 14.8398 6.10547 14.8242 6.24609C14.8086 6.41016 14.7969 6.53516 14.7891 6.62109C14.7891 6.71484 14.7773 6.84766 14.7539 7.01953C14.7383 7.16797 14.7109 7.37109 14.6719 7.62891C14.6406 7.87891 14.5977 8.19922 14.543 8.58984C14.1758 8.59766 13.8281 8.60547 13.5 8.61328C13.1719 8.61328 12.8828 8.61719 12.6328 8.625C12.3359 8.63281 12.0625 8.64062 11.8125 8.64844C11.5547 8.64844 11.2695 8.66016 10.957 8.68359C10.6836 8.69922 10.3594 8.72266 9.98438 8.75391C9.61719 8.78516 9.21094 8.82812 8.76562 8.88281C8.80469 8.35156 8.83203 7.85156 8.84766 7.38281C8.87109 6.90625 8.88672 6.48828 8.89453 6.12891C8.90234 5.70703 8.90234 5.31641 8.89453 4.95703C8.93359 4.05859 8.91797 3.33203 8.84766 2.77734C8.77734 2.22266 8.69531 1.86719 8.60156 1.71094C8.55469 1.65625 8.48828 1.58984 8.40234 1.51172C8.33203 1.44922 8.23438 1.375 8.10938 1.28906C7.98438 1.20312 7.82812 1.10547 7.64062 0.996094ZM16.5703 7.71094C16.8516 7.67188 17.0703 7.71875 17.2266 7.85156C17.3906 7.98438 17.4688 8.16797 17.4609 8.40234C17.4531 8.51953 17.4297 8.61328 17.3906 8.68359C17.3516 8.75391 17.2969 8.80859 17.2266 8.84766C17.1641 8.87891 17.0859 8.90625 16.9922 8.92969C16.9062 8.94531 16.8047 8.96094 16.6875 8.97656C16.5703 9 16.457 8.99609 16.3477 8.96484C16.2383 8.92578 16.1406 8.87109 16.0547 8.80078C15.9688 8.73047 15.8984 8.65234 15.8438 8.56641C15.7969 8.48047 15.7734 8.39453 15.7734 8.30859C15.7734 8.21484 15.7969 8.13672 15.8438 8.07422C15.8984 8.00391 15.9648 7.94531 16.043 7.89844C16.1289 7.84375 16.2148 7.80469 16.3008 7.78125C16.3945 7.75 16.4844 7.72656 16.5703 7.71094Z" fill="#E2F888"/>
</svg>
