<svg width="71" height="13" viewBox="0 0 71 13" fill="none" xmlns="http://www.w3.org/2000/svg">
<path d="M0.248 1.324H5.396V2.44H1.412V5.212H4.904V6.316H1.412V10H0.248V1.324ZM7.78831 5.032L7.89631 6.472L7.83631 6.28C7.96431 5.976 8.14831 5.72 8.38831 5.512C8.63631 5.296 8.89231 5.132 9.15631 5.02C9.42831 4.9 9.66431 4.84 9.86431 4.84L9.80431 5.944C9.42831 5.92 9.09631 5.992 8.80831 6.16C8.52831 6.328 8.30431 6.552 8.13631 6.832C7.97631 7.112 7.89631 7.412 7.89631 7.732V10H6.79231V5.032H7.78831ZM13.3971 10.12C12.8291 10.12 12.3411 10.008 11.9331 9.784C11.5251 9.552 11.2091 9.24 10.9851 8.848C10.7691 8.448 10.6611 7.992 10.6611 7.48C10.6611 6.992 10.7851 6.548 11.0331 6.148C11.2811 5.748 11.6131 5.428 12.0291 5.188C12.4451 4.948 12.9091 4.828 13.4211 4.828C14.0771 4.828 14.6211 5.02 15.0531 5.404C15.4851 5.788 15.7771 6.316 15.9291 6.988L11.8371 8.428L11.5731 7.768L14.9331 6.544L14.6931 6.7C14.5971 6.436 14.4371 6.208 14.2131 6.016C13.9891 5.816 13.6971 5.716 13.3371 5.716C13.0331 5.716 12.7611 5.792 12.5211 5.944C12.2811 6.088 12.0931 6.288 11.9571 6.544C11.8211 6.8 11.7531 7.092 11.7531 7.42C11.7531 7.764 11.8251 8.068 11.9691 8.332C12.1131 8.588 12.3091 8.792 12.5571 8.944C12.8131 9.088 13.1011 9.16 13.4211 9.16C13.6371 9.16 13.8451 9.12 14.0451 9.04C14.2531 8.96 14.4451 8.856 14.6211 8.728L15.1371 9.556C14.8891 9.724 14.6091 9.86 14.2971 9.964C13.9931 10.068 13.6931 10.12 13.3971 10.12ZM18.7195 10.096C18.3675 10.096 18.0235 10.036 17.6875 9.916C17.3595 9.788 17.0875 9.6 16.8715 9.352L17.3395 8.704C17.5475 8.904 17.7595 9.056 17.9755 9.16C18.1995 9.256 18.4195 9.304 18.6355 9.304C18.7955 9.304 18.9435 9.284 19.0795 9.244C19.2155 9.204 19.3235 9.14 19.4035 9.052C19.4915 8.956 19.5355 8.828 19.5355 8.668C19.5355 8.492 19.4755 8.352 19.3555 8.248C19.2435 8.144 19.0955 8.06 18.9115 7.996C18.7355 7.932 18.5475 7.872 18.3475 7.816C17.9395 7.68 17.6275 7.492 17.4115 7.252C17.1955 7.012 17.0875 6.72 17.0875 6.376C17.0875 6.112 17.1515 5.868 17.2795 5.644C17.4155 5.412 17.6115 5.224 17.8675 5.08C18.1315 4.936 18.4555 4.864 18.8395 4.864C19.1835 4.864 19.4915 4.908 19.7635 4.996C20.0355 5.076 20.2915 5.212 20.5315 5.404L20.0875 6.1C19.9435 5.948 19.7715 5.836 19.5715 5.764C19.3715 5.692 19.1915 5.652 19.0315 5.644C18.8955 5.636 18.7635 5.656 18.6355 5.704C18.5155 5.752 18.4155 5.82 18.3355 5.908C18.2555 5.996 18.2155 6.1 18.2155 6.22C18.2155 6.388 18.2715 6.524 18.3835 6.628C18.4955 6.732 18.6395 6.816 18.8155 6.88C18.9995 6.936 19.1795 6.996 19.3555 7.06C19.6035 7.132 19.8235 7.228 20.0155 7.348C20.2075 7.468 20.3595 7.616 20.4715 7.792C20.5915 7.968 20.6515 8.188 20.6515 8.452C20.6515 8.748 20.5795 9.024 20.4355 9.28C20.2995 9.528 20.0875 9.728 19.7995 9.88C19.5195 10.024 19.1595 10.096 18.7195 10.096ZM22.2142 10V0.711999H23.3062V6.184L23.2822 5.98C23.4502 5.652 23.7062 5.38 24.0502 5.164C24.4022 4.948 24.8142 4.84 25.2862 4.84C25.7582 4.84 26.1422 4.98 26.4382 5.26C26.7422 5.532 26.8982 5.888 26.9062 6.328V10H25.7782V6.724C25.7702 6.452 25.6902 6.232 25.5382 6.064C25.3942 5.888 25.1662 5.8 24.8542 5.8C24.5662 5.8 24.3062 5.884 24.0742 6.052C23.8422 6.212 23.6582 6.432 23.5222 6.712C23.3942 6.992 23.3302 7.312 23.3302 7.672V10H22.2142ZM29.123 1.324H34.763V2.44H30.287V5.08H34.283V6.196H30.287V8.884H34.931V10H29.123V1.324ZM38.5471 6.88L39.7351 5.032H40.8631L38.9551 7.696L38.5471 6.88ZM41.0551 10H39.7111L35.9311 5.032H37.3111L41.0551 10ZM38.4271 8.152L37.1191 10H35.9911L37.8871 7.408L38.4271 8.152ZM45.1813 10.12C44.8053 10.12 44.4413 10.032 44.0893 9.856C43.7453 9.68 43.4773 9.444 43.2853 9.148L43.3573 8.8V12.388H42.2533V4.96H43.2133L43.3693 6.232L43.2493 5.884C43.4893 5.58 43.7933 5.328 44.1613 5.128C44.5293 4.928 44.9413 4.828 45.3973 4.828C45.8613 4.828 46.2773 4.94 46.6453 5.164C47.0213 5.388 47.3173 5.7 47.5333 6.1C47.7493 6.5 47.8573 6.968 47.8573 7.504C47.8573 8.04 47.7413 8.504 47.5093 8.896C47.2773 9.288 46.9573 9.592 46.5493 9.808C46.1493 10.016 45.6933 10.12 45.1813 10.12ZM44.9653 9.232C45.2853 9.232 45.5773 9.16 45.8413 9.016C46.1133 8.864 46.3293 8.66 46.4893 8.404C46.6493 8.14 46.7293 7.844 46.7293 7.516C46.7293 7.18 46.6533 6.884 46.5013 6.628C46.3493 6.364 46.1453 6.156 45.8893 6.004C45.6413 5.852 45.3613 5.776 45.0493 5.776C44.7613 5.776 44.5013 5.832 44.2693 5.944C44.0373 6.056 43.8453 6.212 43.6933 6.412C43.5413 6.604 43.4333 6.828 43.3693 7.084V7.912C43.4093 8.168 43.5053 8.396 43.6573 8.596C43.8093 8.796 43.9973 8.952 44.2213 9.064C44.4533 9.176 44.7013 9.232 44.9653 9.232ZM50.3625 5.032L50.4705 6.472L50.4105 6.28C50.5385 5.976 50.7225 5.72 50.9625 5.512C51.2105 5.296 51.4665 5.132 51.7305 5.02C52.0025 4.9 52.2385 4.84 52.4385 4.84L52.3785 5.944C52.0025 5.92 51.6705 5.992 51.3825 6.16C51.1025 6.328 50.8785 6.552 50.7105 6.832C50.5505 7.112 50.4705 7.412 50.4705 7.732V10H49.3665V5.032H50.3625ZM55.9713 10.12C55.4033 10.12 54.9153 10.008 54.5073 9.784C54.0993 9.552 53.7833 9.24 53.5593 8.848C53.3433 8.448 53.2353 7.992 53.2353 7.48C53.2353 6.992 53.3593 6.548 53.6073 6.148C53.8553 5.748 54.1873 5.428 54.6033 5.188C55.0193 4.948 55.4833 4.828 55.9953 4.828C56.6513 4.828 57.1953 5.02 57.6273 5.404C58.0593 5.788 58.3513 6.316 58.5033 6.988L54.4113 8.428L54.1473 7.768L57.5073 6.544L57.2673 6.7C57.1713 6.436 57.0113 6.208 56.7873 6.016C56.5633 5.816 56.2713 5.716 55.9113 5.716C55.6073 5.716 55.3353 5.792 55.0953 5.944C54.8553 6.088 54.6673 6.288 54.5313 6.544C54.3953 6.8 54.3273 7.092 54.3273 7.42C54.3273 7.764 54.3993 8.068 54.5433 8.332C54.6873 8.588 54.8833 8.792 55.1313 8.944C55.3873 9.088 55.6753 9.16 55.9953 9.16C56.2113 9.16 56.4193 9.12 56.6193 9.04C56.8273 8.96 57.0193 8.856 57.1953 8.728L57.7113 9.556C57.4633 9.724 57.1833 9.86 56.8713 9.964C56.5673 10.068 56.2673 10.12 55.9713 10.12ZM61.2937 10.096C60.9417 10.096 60.5977 10.036 60.2617 9.916C59.9337 9.788 59.6617 9.6 59.4457 9.352L59.9137 8.704C60.1217 8.904 60.3337 9.056 60.5497 9.16C60.7737 9.256 60.9937 9.304 61.2097 9.304C61.3697 9.304 61.5177 9.284 61.6537 9.244C61.7897 9.204 61.8977 9.14 61.9777 9.052C62.0657 8.956 62.1097 8.828 62.1097 8.668C62.1097 8.492 62.0497 8.352 61.9297 8.248C61.8177 8.144 61.6697 8.06 61.4857 7.996C61.3097 7.932 61.1217 7.872 60.9217 7.816C60.5137 7.68 60.2017 7.492 59.9857 7.252C59.7697 7.012 59.6617 6.72 59.6617 6.376C59.6617 6.112 59.7257 5.868 59.8537 5.644C59.9897 5.412 60.1857 5.224 60.4417 5.08C60.7057 4.936 61.0297 4.864 61.4137 4.864C61.7577 4.864 62.0657 4.908 62.3377 4.996C62.6097 5.076 62.8657 5.212 63.1057 5.404L62.6617 6.1C62.5177 5.948 62.3457 5.836 62.1457 5.764C61.9457 5.692 61.7657 5.652 61.6057 5.644C61.4697 5.636 61.3377 5.656 61.2097 5.704C61.0897 5.752 60.9897 5.82 60.9097 5.908C60.8297 5.996 60.7897 6.1 60.7897 6.22C60.7897 6.388 60.8457 6.524 60.9577 6.628C61.0697 6.732 61.2137 6.816 61.3897 6.88C61.5737 6.936 61.7537 6.996 61.9297 7.06C62.1777 7.132 62.3977 7.228 62.5897 7.348C62.7817 7.468 62.9337 7.616 63.0457 7.792C63.1657 7.968 63.2257 8.188 63.2257 8.452C63.2257 8.748 63.1537 9.024 63.0097 9.28C62.8737 9.528 62.6617 9.728 62.3737 9.88C62.0937 10.024 61.7337 10.096 61.2937 10.096ZM66.1804 10.096C65.8284 10.096 65.4844 10.036 65.1484 9.916C64.8204 9.788 64.5484 9.6 64.3324 9.352L64.8004 8.704C65.0084 8.904 65.2204 9.056 65.4364 9.16C65.6604 9.256 65.8804 9.304 66.0964 9.304C66.2564 9.304 66.4044 9.284 66.5404 9.244C66.6764 9.204 66.7844 9.14 66.8644 9.052C66.9524 8.956 66.9964 8.828 66.9964 8.668C66.9964 8.492 66.9364 8.352 66.8164 8.248C66.7044 8.144 66.5564 8.06 66.3724 7.996C66.1964 7.932 66.0084 7.872 65.8084 7.816C65.4004 7.68 65.0884 7.492 64.8724 7.252C64.6564 7.012 64.5484 6.72 64.5484 6.376C64.5484 6.112 64.6124 5.868 64.7404 5.644C64.8764 5.412 65.0724 5.224 65.3284 5.08C65.5924 4.936 65.9164 4.864 66.3004 4.864C66.6444 4.864 66.9524 4.908 67.2244 4.996C67.4964 5.076 67.7524 5.212 67.9924 5.404L67.5484 6.1C67.4044 5.948 67.2324 5.836 67.0324 5.764C66.8324 5.692 66.6524 5.652 66.4924 5.644C66.3564 5.636 66.2244 5.656 66.0964 5.704C65.9764 5.752 65.8764 5.82 65.7964 5.908C65.7164 5.996 65.6764 6.1 65.6764 6.22C65.6764 6.388 65.7324 6.524 65.8444 6.628C65.9564 6.732 66.1004 6.816 66.2764 6.88C66.4604 6.936 66.6404 6.996 66.8164 7.06C67.0644 7.132 67.2844 7.228 67.4764 7.348C67.6684 7.468 67.8204 7.616 67.9324 7.792C68.0524 7.968 68.1124 8.188 68.1124 8.452C68.1124 8.748 68.0404 9.024 67.8964 9.28C67.7604 9.528 67.5484 9.728 67.2604 9.88C66.9804 10.024 66.6204 10.096 66.1804 10.096ZM69.1111 9.364C69.1111 9.188 69.1751 9.04 69.3031 8.92C69.4391 8.792 69.5871 8.728 69.7471 8.728C69.8911 8.728 70.0271 8.792 70.1551 8.92C70.2911 9.04 70.3591 9.188 70.3591 9.364C70.3591 9.556 70.2911 9.712 70.1551 9.832C70.0271 9.944 69.8911 10 69.7471 10C69.5871 10 69.4391 9.944 69.3031 9.832C69.1751 9.712 69.1111 9.556 69.1111 9.364Z" fill="white"/>
</svg>
