<svg width="15" height="15" viewBox="0 0 15 15" fill="none" xmlns="http://www.w3.org/2000/svg">
                            <path
                                d="M10.3377 9.63117C11.1849 8.47502 11.5644 7.04159 11.4002 5.61767C11.236 4.19375 10.5401 2.88434 9.45195 1.9514C8.36376 1.01847 6.96344 0.530819 5.53114 0.586008C4.09884 0.641197 2.74019 1.23516 1.72702 2.24906C0.71384 3.26296 0.120852 4.62203 0.0666878 6.05437C0.0125237 7.48671 0.501178 8.88668 1.43489 9.97421C2.3686 11.0617 3.67851 11.7566 5.10255 11.9198C6.52659 12.083 7.95974 11.7025 9.11528 10.8544H9.11441C9.14066 10.8894 9.16866 10.9227 9.20016 10.955L12.5689 14.3238C12.733 14.488 12.9555 14.5803 13.1877 14.5803C13.4198 14.5804 13.6424 14.4883 13.8066 14.3242C13.9708 14.1602 14.0631 13.9376 14.0631 13.7055C14.0632 13.4734 13.9711 13.2507 13.807 13.0865L10.4383 9.71779C10.407 9.68612 10.3734 9.65775 10.3377 9.63117ZM10.5634 6.26767C10.5634 6.89965 10.4389 7.52545 10.1971 8.10933C9.95523 8.69321 9.60074 9.22374 9.15386 9.67062C8.70698 10.1175 8.17645 10.472 7.59257 10.7138C7.00869 10.9557 6.38289 11.0802 5.75091 11.0802C5.11892 11.0802 4.49312 10.9557 3.90924 10.7138C3.32536 10.472 2.79484 10.1175 2.34796 9.67062C1.90107 9.22374 1.54659 8.69321 1.30474 8.10933C1.06289 7.52545 0.938408 6.89965 0.938408 6.26767C0.938408 4.99131 1.44544 3.76723 2.34796 2.86472C3.25048 1.9622 4.47455 1.45517 5.75091 1.45517C7.02726 1.45517 8.25134 1.9622 9.15386 2.86472C10.0564 3.76723 10.5634 4.99131 10.5634 6.26767Z"
                                fill="#000000" />
                        </svg>