<svg width="14" height="10" viewBox="0 0 14 10" fill="none" xmlns="http://www.w3.org/2000/svg">
<path d="M2.15957 4.76309L2.15953 4.76305C1.97327 4.59059 1.72833 4.4997 1.48025 4.4997C1.23216 4.4997 0.987224 4.59059 0.800962 4.76305C0.613403 4.93671 0.5 5.18086 0.5 5.44436C0.5 5.70786 0.613403 5.95201 0.800962 6.12567L4.16061 9.23636C4.25316 9.32215 4.36102 9.38836 4.47713 9.43292C4.5932 9.47748 4.71644 9.5 4.8401 9.5C4.96375 9.5 5.08699 9.47748 5.20307 9.43292C5.31917 9.38836 5.42703 9.32215 5.51958 9.23636L13.199 2.12597C13.3866 1.9523 13.5 1.70816 13.5 1.44466C13.5 1.18116 13.3866 0.937013 13.199 0.763352C13.0128 0.590891 12.7678 0.5 12.5198 0.5C12.2717 0.5 12.0267 0.590891 11.8405 0.763352L11.8405 0.763366L4.84012 7.2455L2.15957 4.76309Z" fill="#FFFFFF" stroke="#FFFFFF"/>
</svg>
